<svg xmlns="http://www.w3.org/2000/svg" xmlns:xlink="http://www.w3.org/1999/xlink" width="24" height="24" viewBox="0 0 24 24">
    <defs>
        <path id="a" d="M8.44 5.039H6.3c-1.307 0-1.9.594-1.9 1.9v2.139c0 1.307.593 1.9 1.9 1.9H8.44c1.306 0 1.9-.593 1.9-1.9V6.94c0-1.307-.594-1.901-1.9-1.901zm8.317 0h-2.139c-1.306 0-1.9.594-1.9 1.9v2.139c0 1.307.594 1.9 1.9 1.9h2.139c1.307 0 1.9-.593 1.9-1.9V6.94c0-1.307-.593-1.901-1.9-1.901zM8.44 13.356H6.3c-1.307 0-1.9.594-1.9 1.9v2.14c0 1.307.593 1.901 1.9 1.901H8.44c1.306 0 1.9-.594 1.9-1.902v-2.138c0-1.307-.594-1.901-1.9-1.901zm8.317 0h-2.139c-1.306 0-1.9.594-1.9 1.9v2.14c0 1.307.594 1.901 1.9 1.901h2.139c1.307 0 1.9-.594 1.9-1.902v-2.138c0-1.307-.593-1.901-1.9-1.901z"/>
    </defs>
    <g fill="none" fill-rule="evenodd">
        <path d="M0 0h24v24H0z"/>
        <mask id="b" fill="#fff">
            <use xlink:href="#a"/>
        </mask>
        <use fill="#000" xlink:href="#a"/>
        <g fill="#0C0033" mask="url(#b)">
            <path d="M-42-7H58v40H-42z"/>
        </g>
    </g>
</svg>
