<svg xmlns="http://www.w3.org/2000/svg" width="18" height="16" viewBox="0 0 18 16">
    <g fill="none" fill-rule="evenodd">
        <g fill="#FFF" fill-rule="nonzero">
            <g>
                <g>
                    <g>
                        <path d="M14.757 7.915c1.372 0 2.49 1.115 2.49 2.486v2.744c0 .822-.67 1.491-1.494 1.491h-2.205c.055-.155.085-.323.085-.497V9.106c0-.418-.074-.82-.21-1.191zm-10.934 0c-.136.372-.21.773-.21 1.19v5.034c0 .175.03.342.086.497H1.494C.67 14.636 0 13.967 0 13.145V10.4c0-1.37 1.117-2.486 2.49-2.486zm6.325-1.295c1.373 0 2.49 1.115 2.49 2.486v5.033c0 .275-.224.497-.499.497H5.107c-.275 0-.498-.222-.498-.497V9.106c0-1.371 1.117-2.486 2.49-2.486zM3.366 2.815c1.234 0 2.239 1.003 2.239 2.236 0 .38-.096.737-.263 1.05-.24.447-.626.803-1.094 1.004-.27.117-.57.182-.882.182-1.235 0-2.24-1.003-2.24-2.236 0-1.233 1.005-2.236 2.24-2.236zm10.515 0c1.234 0 2.239 1.003 2.239 2.236 0 1.233-1.005 2.236-2.24 2.236-.313 0-.61-.065-.882-.182-.468-.201-.854-.557-1.093-1.004-.168-.313-.264-.67-.264-1.05 0-1.233 1.005-2.236 2.24-2.236zM8.623.028c1.651 0 2.994 1.341 2.994 2.99 0 1.118-.618 2.095-1.53 2.607-.434.244-.933.383-1.464.383-.531 0-1.03-.14-1.463-.383-.913-.512-1.53-1.489-1.53-2.607 0-1.649 1.342-2.99 2.993-2.99z" transform="translate(-16 -331) translate(13 99.853) translate(3 231.66)"/>
                    </g>
                </g>
            </g>
        </g>
    </g>
</svg>
