<svg xmlns="http://www.w3.org/2000/svg" width="20" height="15" viewBox="0 0 20 15">
    <g fill="none" fill-rule="evenodd">
        <g fill="#5A5E67" fill-rule="nonzero">
            <g>
                <g>
                    <path d="M17.273 1.818S15.188.186 12.727 0l-.222.444c2.225.545 3.246 1.324 4.313 2.283C14.978 1.788 13.164.91 10 .91c-3.164 0-4.979.88-6.818 1.818C4.249 1.768 5.464.902 7.495.444L7.273 0C4.69.243 2.727 1.818 2.727 1.818S.4 5.194 0 11.818c2.345 2.706 5.91 2.727 5.91 2.727l.745-.992c-1.266-.44-2.693-1.225-3.928-2.644C4.2 12.023 6.42 13.182 10 13.182c3.58 0 5.8-1.16 7.273-2.273-1.234 1.419-2.662 2.204-3.928 2.644l.746.992s3.564-.02 5.909-2.727c-.4-6.624-2.727-10-2.727-10zM7.045 10c-.879 0-1.59-.814-1.59-1.818 0-1.005.711-1.818 1.59-1.818.88 0 1.591.813 1.591 1.818 0 1.004-.711 1.818-1.59 1.818zm5.91 0c-.88 0-1.591-.814-1.591-1.818 0-1.005.711-1.818 1.59-1.818.88 0 1.591.813 1.591 1.818 0 1.004-.711 1.818-1.59 1.818z" transform="translate(-332 -1332) translate(0 1316) translate(332 16)"/>
                </g>
            </g>
        </g>
    </g>
</svg>
