<svg xmlns="http://www.w3.org/2000/svg" width="20" height="20" viewBox="0 0 20 20">
    <path fill="#FFF" fill-rule="nonzero" d="M19.74.804l.241 7.993a.578.578 0 0 1-.169.426L9.97 19.089A3.08 3.08 0 0 1 7.774 20a3.08 3.08 0 0 1-2.196-.911L.924 14.424a3.11 3.11 0 0 1 0-4.386L10.767.172A.588.588 0 0 1 11.2 0l7.974.241c.31.01.558.256.567.563zm-3.43 5.345a1.733 1.733 0 0 0 0-2.462 1.766 1.766 0 0 0-2.482 0 1.723 1.723 0 0 0-.514 1.231c0 .465.183.902.514 1.231.342.34.792.51 1.241.51.45 0 .899-.17 1.24-.51zM5.337 11c-.216.182-.337.385-.337.6 0 .773 1.567 1.4 3.5 1.4s3.5-.627 3.5-1.4c0-.215-.12-.418-.337-.6-.562.473-1.767.8-3.163.8s-2.601-.327-3.163-.8zm0 2c-.216.182-.337.385-.337.6 0 .773 1.567 1.4 3.5 1.4s3.5-.627 3.5-1.4c0-.215-.12-.418-.337-.6-.562.473-1.767.8-3.163.8s-2.601-.327-3.163-.8zM8.5 11c1.933 0 3.5-.672 3.5-1.5S10.433 8 8.5 8 5 8.672 5 9.5 6.567 11 8.5 11z"/>
</svg>
