<?xml version="1.0" encoding="UTF-8"?>
<svg width="24px" height="24px" viewBox="0 0 24 24" version="1.1" xmlns="http://www.w3.org/2000/svg" xmlns:xlink="http://www.w3.org/1999/xlink">
    <title>information--square--filled</title>
    <g id="Page-1" stroke="none" stroke-width="1" fill="none" fill-rule="evenodd">
        <g id="information--square--filled">
            <path d="M12,6 C12.6213203,6 13.125,6.50367966 13.125,7.125 C13.125,7.74632034 12.6213203,8.25 12,8.25 C11.3786797,8.25 10.875,7.74632034 10.875,7.125 C10.875,6.50367966 11.3786797,6 12,6 Z M15,16.40625 L12.84375,16.40625 L12.84375,10.40625 L9.75,10.40625 L9.75,12.09375 L11.15625,12.09375 L11.15625,16.40625 L9,16.40625 L9,18.09375 L15,18.09375 L15,16.40625 Z" id="_inner-path_"></path>
            <path d="M19.5,3 L4.5,3 C3.67157288,3 3,3.67157288 3,4.5 L3,19.5 C3,20.3284271 3.67157288,21 4.5,21 L19.5,21 C20.3284271,21 21,20.3284271 21,19.5 L21,4.5 C21,3.67157288 20.3284271,3 19.5,3 Z M12,6 C12.6213203,6 13.125,6.50367966 13.125,7.125 C13.125,7.74632034 12.6213203,8.25 12,8.25 C11.3786797,8.25 10.875,7.74632034 10.875,7.125 C10.875,6.50367966 11.3786797,6 12,6 Z M15,18.09375 L9,18.09375 L9,16.40625 L11.15625,16.40625 L11.15625,12.09375 L9.75,12.09375 L9.75,10.40625 L12.84375,10.40625 L12.84375,16.40625 L15,16.40625 L15,18.09375 Z" id="Shape" fill="#1F5BB2" fill-rule="nonzero"></path>
            <rect id="_Transparent_Rectangle_" x="0" y="0" width="24" height="24"></rect>
        </g>
    </g>
</svg>