<svg xmlns="http://www.w3.org/2000/svg" width="24" height="24" viewBox="0 0 24 24">
    <g fill="none" fill-rule="evenodd">
        <path d="M0 0h24v24H0z"/>
        <g fill-rule="nonzero" stroke-width=".5">
            <path fill="#E4761B" stroke="#E4761B" d="M21.875 16.605l-1.398 4.726-2.743-.75zM17.734 20.58l2.646-3.625 1.495-.35z"/>
            <path fill="#F6851B" stroke="#F6851B" d="M19.819 13.042l2.056 3.563-1.495.35-.561-3.913zm0 0l1.323-.916.733 4.48-2.056-3.564z"/>
            <path fill="#763D16" stroke="#763D16" d="M18.135 10.35l3.803-1.558-.19.854-3.613.704zm3.494.321l-3.494-.32 3.614-.705-.12 1.025z"/>
            <path fill="#763D16" stroke="#763D16" d="M21.629 10.671l-.487 1.455-3.007-1.776 3.494.321zm.761-1.518l-.641.493.189-.854.452.361zm-.761 1.518l.12-1.025.51.424-.63.601z"/>
            <path fill="#E2761B" stroke="#E2761B" d="M14.784 19.43l.95.303 2 .847z"/>
            <path fill="#763D16" stroke="#763D16" d="M21.142 12.126l.487-1.455.418.32-.905 1.135zm0 0l-3.947-1.3.94-.476 3.007 1.776z"/>
            <path fill="#763D16" stroke="#763D16" d="M19.074 5.888l-.94 4.462-.939.476z"/>
            <path fill="#763D16" stroke="#763D16" d="M21.938 8.792l-3.803 1.558.939-4.462zM19.074 5.888l3.97-.458-1.106 3.362z"/>
            <path fill="#F6851B" stroke="#F6851B" d="M21.142 12.126l-1.323.916-2.624-2.216z"/>
            <path fill="#763D16" stroke="#763D16" d="M22.872 2.217l.171 3.213-3.969.458z"/>
            <path fill="#E2761B" stroke="#E2761B" d="M22.872 2.217l-7.934 5.768-.103-3.912z"/>
            <path fill="#F6851B" stroke="#F6851B" d="M8.936 3.603l5.9.47.102 3.912z"/>
            <path fill="#763D16" stroke="#763D16" d="M17.195 10.826l-2.257-2.841 4.136-2.097z"/>
            <path fill="#E4761B" stroke="#E4761B" d="M17.195 10.826l2.624 2.216-3.683.407z"/>
            <path fill="#E4761B" stroke="#E4761B" d="M16.136 13.45l-1.198-5.465 2.257 2.84z"/>
            <path fill="#763D16" stroke="#763D16" d="M19.074 5.888l-4.136 2.097 7.934-5.768z"/>
            <path fill="#C0AD9E" stroke="#C0AD9E" d="M8.987 20.489l1.873 1.953-2.549-2.32z"/>
            <path fill="#CD6116" stroke="#CD6116" d="M17.734 20.58l.887-3.373 1.759-.252z"/>
            <path fill="#E2761B" stroke="#E2761B" d="M1.392 11.09L4.634 7.68 1.81 10.683z"/>
            <path fill="#F6851B" stroke="#F6851B" d="M20.38 16.955l-1.759.252 1.198-4.165.561 3.913zm-5.442-8.97l-3.156-.103-2.846-4.28 6.002 4.383z"/>
            <path fill="#E4751F" stroke="#E4751F" d="M19.819 13.042l-1.198 4.165-.097-2.034z"/>
            <path fill="#CD6116" stroke="#CD6116" d="M16.136 13.45l3.683-.408-1.295 2.131z"/>
            <path fill="#F6851B" stroke="#F6851B" d="M11.782 7.882l3.156.103 1.198 5.464z"/>
            <path fill="#E4761B" stroke="#E4761B" d="M11.782 7.882L3.265 0l5.67 3.603 2.847 4.279zM8.93 21.686l-7.4 2.291-1.478-5.642 8.878 3.35z"/>
            <path fill="#763D16" stroke="#763D16" d="M2.492 12.498l2.795-2.193 2.343.544z"/>
            <path fill="#763D16" stroke="#763D16" d="M7.63 10.849l-2.343-.544L6.54 5.126zM1.81 10.683l3.477-.378-2.795 2.193z"/>
            <path fill="#CD6116" stroke="#CD6116" d="M18.524 15.173l-1.443-.727-.945-.997z"/>
            <path fill="#763D16" stroke="#763D16" d="M1.81 10.683l-.246-1.3 3.723.922z"/>
            <path fill="#233447" stroke="#233447" d="M16.783 16.084l.298-1.638 1.443.727z"/>
            <path fill="#F6851B" stroke="#F6851B" d="M18.621 17.207l-1.838-1.123 1.741-.91z"/>
            <path fill="#763D16" stroke="#763D16" d="M5.287 10.305l-3.723-.923-.304-1.094 4.027 2.017zM6.54 5.126l-1.254 5.179L1.26 8.288l5.281-3.162zm0 0l5.241 2.756-4.152 2.967L6.54 5.126z"/>
            <path fill="#E4761B" stroke="#E4761B" d="M7.63 10.849l4.152-2.967 1.85 5.653L7.63 10.85zm6.002 2.686l-5.739-.12-.263-2.566 6.002 2.686z"/>
            <path fill="#F6851B" stroke="#F6851B" d="M2.492 12.498l5.138-1.65.263 2.567-5.401-.917zm13.644.951l-2.504.086-1.85-5.653 4.354 5.567z"/>
            <path fill="#CD6116" stroke="#CD6116" d="M17.08 14.446l-.297 1.638-.647-2.635z"/>
            <path fill="#763D16" stroke="#763D16" d="M3.265 0l8.517 7.882-5.24-2.756z"/>
            <path fill="#E4761B" stroke="#E4761B" d="M.052 18.335l7.182-.298 1.696 3.649z"/>
            <path fill="#CD6116" stroke="#CD6116" d="M8.93 21.686l-1.696-3.649 3.529-.172z"/>
            <path fill="#F6851B" stroke="#F6851B" d="M16.783 16.084l1.838 1.123 1.014 2.388-2.852-3.511zm-8.89-2.67L.052 18.336l2.44-5.837 5.401.917zm-.659 4.623l-7.182.298 7.841-4.92-.659 4.622zm8.902-4.588l.47 1.707-2.269.132 1.799-1.839zm-1.799 1.839l-.705-1.753 2.504-.086-1.799 1.839z"/>
            <path fill="#C0AD9E" stroke="#C0AD9E" d="M10.86 22.442l-1.93-.756 6.713 1.128z"/>
            <path fill="#763D16" stroke="#763D16" d="M2.492 12.498l-1.1-1.409.418-.406z"/>
            <path fill="#D7C1B3" stroke="#D7C1B3" d="M16.405 21.978l-.762.836-6.713-1.128z"/>
            <path fill="#E4761B" stroke="#E4761B" d="M16.766 19.927L8.93 21.686l1.833-3.82z"/>
            <path fill="#D7C1B3" stroke="#D7C1B3" d="M8.93 21.686l7.836-1.759-.361 2.051z"/>
            <path fill="#763D16" stroke="#763D16" d="M1.26 8.288l-.258-4.404 5.54 1.242L1.26 8.288zm.55 2.395l-.762-.774.516-.527.246 1.3z"/>
            <path fill="#CD6116" stroke="#CD6116" d="M12.35 14.67l1.282-1.135-.183 2.772z"/>
            <path fill="#CD6116" stroke="#CD6116" d="M13.632 13.535L12.35 14.67l-1.867.968z"/>
            <path fill="#F6851B" stroke="#F6851B" d="M19.635 19.595l-.35-.258-2.502-3.253z"/>
            <path fill="#CD6116" stroke="#CD6116" d="M10.482 15.637l-2.589-2.222 5.74.12z"/>
            <path fill="#E4751F" stroke="#E4751F" d="M13.45 16.307l.182-2.772.705 1.753z"/>
            <path fill="#763D16" stroke="#763D16" d="M.796 8.724l.464-.436.304 1.094z"/>
            <path fill="#233447" stroke="#233447" d="M13.45 16.307l-2.968-.67 1.867-.968z"/>
            <path fill="#763D16" stroke="#763D16" d="M6.541 5.126L1.002 3.884 3.265 0z"/>
            <path fill="#C0AD9E" stroke="#C0AD9E" d="M15.643 22.814l.315.86-5.098-1.232z"/>
            <path fill="#F6851B" stroke="#F6851B" d="M10.763 17.865l-.28-2.228 2.966.67z"/>
            <path fill="#E4751F" stroke="#E4751F" d="M7.893 13.415l2.59 2.222.28 2.228z"/>
            <path fill="#F6851B" stroke="#F6851B" d="M14.337 15.288l2.268-.132 2.68 4.181-4.948-4.05zm-6.444-1.873l2.87 4.45-3.529.172.66-4.622z"/>
            <path fill="#E4751F" stroke="#E4751F" d="M14.337 15.288l2.818 4.29-3.706-3.27z"/>
            <path fill="#F6851B" stroke="#F6851B" d="M13.45 16.307l3.705 3.271-.39.35z"/>
            <path fill="#F6851B" stroke="#F6851B" d="M16.766 19.927l-6.003-2.062 2.686-1.558 3.317 3.62zm2.52-.59l-2.13.241-2.819-4.29 4.949 4.05z"/>
            <path fill="#C0AD9E" stroke="#C0AD9E" d="M19.847 21.354l-.916 1.838-2.973.482 3.89-2.32zm-3.889 2.32l-.315-.86.762-.836-.447 1.696z"/>
            <path fill="#C0AD9E" stroke="#C0AD9E" d="M16.405 21.978l.561-.223-1.008 1.919.447-1.696zm-.447 1.696l1.008-1.92 2.881-.4-3.889 2.32z"/>
            <path fill="#161616" stroke="#161616" d="M19.286 19.337l.704.43-2.142.258z"/>
            <path fill="#161616" stroke="#161616" d="M17.848 20.025l-.693-.447 2.13-.24-1.437.687zm-.246.338l2.606-.315-.36 1.306-2.246-.991z"/>
            <path fill="#161616" stroke="#161616" d="M19.847 21.354l-2.88.4.635-1.391 2.245.99zm-2.88.4l-.562.224.36-2.05.201 1.827zm-.201-1.827l.39-.349.692.447-1.082-.098zm3.224-.16l.218.28-2.606.316 2.388-.596z"/>
            <path fill="#161616" stroke="#161616" d="M17.602 20.363l.246-.338 2.142-.258-2.388.596zm-.836-.436l.836.436-.636 1.392-.2-1.828z"/>
        </g>
    </g>
</svg>
