<?xml version="1.0" encoding="UTF-8"?>
<svg width="20px" height="20px" viewBox="0 0 20 20" version="1.1" xmlns="http://www.w3.org/2000/svg" xmlns:xlink="http://www.w3.org/1999/xlink">
    <!-- Generator: Sketch 49.2 (51160) - http://www.bohemiancoding.com/sketch -->
    <title>ic/ellipsis</title>
    <desc>Created with Sketch.</desc>
    <defs>
        <path d="M2.881,7.981 C1.678,7.981 0.703,8.957 0.703,10.16 C0.703,11.363 1.678,12.338 2.881,12.338 C4.084,12.338 5.06,11.363 5.06,10.16 C5.06,8.957 4.084,7.981 2.881,7.981 L2.881,7.981 Z M9.812,7.981 C8.61,7.981 7.634,8.957 7.634,10.16 C7.634,11.363 8.61,12.338 9.812,12.338 C11.015,12.338 11.991,11.363 11.991,10.16 C11.991,8.957 11.015,7.981 9.812,7.981 L9.812,7.981 Z M16.742,7.981 C15.539,7.981 14.564,8.957 14.564,10.16 C14.564,11.363 15.539,12.338 16.742,12.338 C17.945,12.338 18.92,11.363 18.92,10.16 C18.92,8.957 17.945,7.981 16.742,7.981 L16.742,7.981 Z" id="path-1"></path>
    </defs>
    <g id="ic/ellipsis" stroke="none" stroke-width="1" fill="none" fill-rule="evenodd">
        <rect id="Rectangle-path" x="0" y="0" width="20" height="20"></rect>
        <mask id="mask-2" fill="white">
            <use xlink:href="#path-1"></use>
        </mask>
        <use id="Mask" fill="#000000" xlink:href="#path-1"></use>
        <g id="Mixin/Fill/Accent-1" mask="url(#mask-2)" fill="#2ED573">
            <g transform="translate(-41.000000, -8.000000)" id="Box">
                <rect x="0" y="0" width="100" height="40"></rect>
            </g>
        </g>
    </g>
</svg>