<svg xmlns="http://www.w3.org/2000/svg" width="103" height="54" viewBox="0 0 103 54">
    <g fill="none" fill-rule="nonzero">
        <g fill="#141927">
            <path d="M54.617 25.53c-.262.147-.586.22-.96.22-.125 0-.412-.012-.886-.06v1.33c.411.11.823.147 1.247.147.649 0 1.185-.17 1.622-.5.436-.33.823-.843 1.147-1.552l3.667-8.207-1.734.025-2.22 5.373-2.158-5.373H52.61l3.006 7.034-.312.696c-.2.428-.437.721-.686.868zM63.186 23.296c.274.378.648.671 1.097.879.462.208.96.317 1.522.317 1.06 0 1.933-.354 2.62-1.099.686-.732 1.047-1.648 1.047-2.748 0-1.099-.349-2.015-1.06-2.748-.71-.732-1.597-1.099-2.657-1.099l.063-.012c-1.086 0-1.934.354-2.532 1.063V13.06h-1.61V24.31h1.497v-1.013h.013zm.686-4.422a2.3 2.3 0 0 1 1.609-.635c.66 0 1.21.22 1.659.672.449.452.66 1.026.66 1.722 0 .709-.211 1.295-.66 1.747-.45.452-.96.696-1.622.696h-.025c-.623 0-1.16-.196-1.609-.599-.449-.403-.673-1.001-.673-1.795s.212-1.392.66-1.808zM74.985 24.505c1.148 0 2.146-.391 3.006-1.185l-.76-1.075c-.674.587-1.41.867-2.196.867-.66 0-1.21-.17-1.659-.513-.449-.342-.723-.83-.823-1.44h5.613c.15-.392.15-.99.15-.99 0-.977-.337-1.783-.998-2.43-.661-.648-1.484-.965-2.482-.965-1.085 0-2.008.378-2.757 1.123-.748.745-1.135 1.661-1.135 2.748 0 1.1.387 2.016 1.148 2.748.76.745 1.733 1.112 2.893 1.112zm-1.621-5.875c.399-.33.848-.488 1.384-.5.537 0 .986.17 1.36.5.362.33.549.77.561 1.32h-4.09c.124-.563.386-.99.785-1.32zM81.409 20.401c0-.647.212-1.136.624-1.502.411-.354.935-.537 1.559-.537h.486v-1.393a2.227 2.227 0 0 0-.598-.073c-.923 0-1.66.354-2.196 1.038v-.965h-1.496v7.39h1.609V20.4h.012zM83.48 16.884h.059-.06zM51.673 16.957h-1.996l-2.93 3.236 3.28 4.165h1.933l-3.318-4.152zM45.087 13.073h1.61v11.285h-1.61zM49.312 34.6H46.96v3.696c0 .523.136.88.408 1.072.272.192.659.288 1.16.288.139 0 .293-.008.464-.024l.56-.056V41c-.213.053-.43.096-.648.128a5.052 5.052 0 0 1-.728.048c-.875 0-1.576-.219-2.104-.656-.528-.437-.792-1.13-.792-2.08V34.6H44v-1.456h1.28V31.08h1.68v2.064h2.352V34.6zm5.408-1.536a2.342 2.342 0 0 1 .64.08v1.488h-.512c-.31 0-.605.045-.888.136a1.952 1.952 0 0 0-1.232 1.088c-.123.272-.184.59-.184.952V41h-1.68v-7.856h1.552V34.2a2.72 2.72 0 0 1 1.016-.848c.4-.192.83-.288 1.288-.288zm4.592-.096c.48 0 .917.07 1.312.208.395.139.733.344 1.016.616.283.272.504.613.664 1.024.16.41.24.888.24 1.432V41h-1.568v-.88c-.277.33-.63.59-1.056.776a3.6 3.6 0 0 1-1.456.28c-.416 0-.792-.053-1.128-.16a2.488 2.488 0 0 1-.864-.464 2.068 2.068 0 0 1-.744-1.648c0-.693.261-1.24.784-1.64.523-.4 1.227-.6 2.112-.6h2.224v-.512c0-.544-.144-.96-.432-1.248-.288-.288-.704-.432-1.248-.432-.459 0-.859.101-1.2.304-.341.203-.672.49-.992.864l-.96-.992c.405-.576.89-1 1.456-1.272a4.188 4.188 0 0 1 1.84-.408zm-.496 6.912c.277 0 .539-.045.784-.136.245-.09.461-.219.648-.384a1.79 1.79 0 0 0 .44-.592c.107-.23.16-.477.16-.744v-.144h-2.016c-.448 0-.792.08-1.032.24-.24.16-.36.4-.36.72 0 .341.133.6.4.776.267.176.592.264.976.264zm9.328-6.912c.747 0 1.403.165 1.968.496.565.33 1.019.773 1.36 1.328l-1.184.928a3.49 3.49 0 0 0-.904-.872c-.336-.219-.744-.328-1.224-.328-.352 0-.68.067-.984.2a2.315 2.315 0 0 0-.776.544c-.213.23-.381.499-.504.808-.123.31-.184.64-.184.992 0 .363.061.701.184 1.016.123.315.29.587.504.816.213.23.472.408.776.536.304.128.632.192.984.192.48 0 .885-.107 1.216-.32.33-.213.63-.501.896-.864l1.184.912a3.862 3.862 0 0 1-1.36 1.328c-.565.33-1.216.496-1.952.496a4.142 4.142 0 0 1-1.624-.32 4.253 4.253 0 0 1-1.328-.872 3.958 3.958 0 0 1-.888-1.304 4.084 4.084 0 0 1-.32-1.616c0-.576.107-1.112.32-1.608a3.98 3.98 0 0 1 .888-1.296 4.253 4.253 0 0 1 1.328-.872 4.142 4.142 0 0 1 1.624-.32zM74.592 41h-1.68V29h1.68v12zm2.032-4.384L80.08 41h-2.016l-3.424-4.416 3.072-3.44h2.096l-3.184 3.472zm7.664-3.648c.523 0 1.008.09 1.456.272.448.181.832.432 1.152.752.32.32.57.701.752 1.144.181.443.272.92.272 1.432 0 .213-.013.416-.04.608a3.15 3.15 0 0 1-.088.448h-5.856c.117.65.405 1.157.864 1.52.459.363 1.024.544 1.696.544a3.05 3.05 0 0 0 1.248-.248c.373-.165.72-.392 1.04-.68l.816 1.152a4.749 4.749 0 0 1-1.408.928 4.342 4.342 0 0 1-1.728.336 4.545 4.545 0 0 1-1.696-.312A3.99 3.99 0 0 1 81.424 40a4.084 4.084 0 0 1-1.2-2.92c0-.576.104-1.115.312-1.616.208-.501.496-.936.864-1.304a4.134 4.134 0 0 1 1.288-.872 3.97 3.97 0 0 1 1.6-.32zm-.048 1.424c-.576 0-1.067.173-1.472.52-.405.347-.672.813-.8 1.4h4.272c-.021-.619-.227-1.093-.616-1.424a2.07 2.07 0 0 0-1.384-.496zm9.056-1.328a2.342 2.342 0 0 1 .64.08v1.488h-.512c-.31 0-.605.045-.888.136a1.952 1.952 0 0 0-1.232 1.088c-.123.272-.184.59-.184.952V41h-1.68v-7.856h1.552V34.2a2.72 2.72 0 0 1 1.016-.848c.4-.192.83-.288 1.288-.288z"/>
        </g>
        <path fill="#31CB9E" d="M16 26.507L36.394 15.14c.717-.396 1.606.095 1.606.899v20.924c0 .791-.89 1.295-1.606.899L16 26.507zM35.575 10.18c.616.451.553 1.343-.126 1.712L15 23 20.043.82c.164-.737 1.082-1.07 1.723-.607l13.809 9.967zM21.753 53.792c-.629.452-1.56.13-1.71-.607L15 31l20.46 11.11c.667.37.73 1.261.113 1.713l-13.82 9.969zM10.798 27.006l5.177 24.7c.204.972-.875 1.673-1.642 1.07L1.079 42.4A2.833 2.833 0 0 1 0 40.162V13.838c0-.873.395-1.709 1.079-2.237L14.333 1.224c.767-.603 1.846.098 1.642 1.07l-5.177 24.712z"/>
    </g>
</svg>
