<svg xmlns="http://www.w3.org/2000/svg" width="20" height="12" viewBox="0 0 20 12">
    <g fill="none" fill-rule="evenodd">
        <path d="M-2-5h24v24H-2z"/>
        <path fill="#FFF" d="M13.64 5.143c1.513 0 2.724-1.149 2.724-2.572C16.364 1.15 15.153 0 13.64 0c-1.512 0-2.732 1.149-2.732 2.571 0 1.423 1.22 2.572 2.732 2.572zm-7.272 0c1.512 0 2.723-1.149 2.723-2.572C9.09 1.15 7.88 0 6.368 0 4.857 0 3.636 1.149 3.636 2.571c0 1.423 1.22 2.572 2.732 2.572zm-.004 1.714C4.245 6.857 0 7.86 0 9.857V12h12.727V9.857c0-1.997-4.245-3-6.363-3zm7.248 0c-.264 0-.565.017-.885.043 1.059.72 1.798 1.689 1.798 2.957V12H20V9.857c0-1.997-4.261-3-6.388-3z"/>
    </g>
</svg>
