<svg xmlns="http://www.w3.org/2000/svg" xmlns:xlink="http://www.w3.org/1999/xlink" width="13" height="16" viewBox="0 0 13 16">
    <defs>
        <path id="a" d="M9.232 10.372c-.752 1.216-3.151 2.104-5.994 2.104s-5.242-.889-5.993-2.104c-.16-.258-.244-.12-.244.008v1.784c0 1.727 2.794 3.518 6.238 3.518 3.445 0 6.238-1.79 6.238-3.518V10.38c0-.127-.086-.266-.245-.008zm.01-4.558c-.74 1.075-3.148 1.862-6.004 1.862-2.856 0-5.264-.787-6.004-1.862-.152-.221-.234-.1-.234 0v2.099c0 1.57 2.794 2.844 6.238 2.844 3.445 0 6.238-1.274 6.238-2.844v-2.1c0-.1-.081-.22-.234.001zM3.238 0C-.206 0-3 1.05-3 2.345v1.123c0 1.374 2.794 2.488 6.238 2.488 3.445 0 6.238-1.114 6.238-2.488V2.345C9.476 1.05 6.683 0 3.238 0z"/>
    </defs>
    <use fill="#FFF" fill-rule="evenodd" transform="translate(3)" xlink:href="#a"/>
</svg>
