<svg xmlns="http://www.w3.org/2000/svg" xmlns:xlink="http://www.w3.org/1999/xlink" width="20" height="20" viewBox="0 0 20 20">
    <defs>
        <path id="a" d="M17.079 12.536c-.835 1.351-3.501 2.338-6.66 2.338-3.159 0-5.824-.987-6.659-2.338-.177-.286-.271-.133-.271.009v1.982c0 1.919 3.104 3.91 6.931 3.91 3.828 0 6.931-1.99 6.931-3.91v-1.982c0-.141-.095-.295-.272-.009zm.011-5.064c-.821 1.194-3.497 2.069-6.671 2.069-3.173 0-5.849-.875-6.671-2.069-.169-.246-.26-.112-.26-.001v2.333c0 1.745 3.104 3.16 6.931 3.16 3.828 0 6.931-1.415 6.931-3.16V7.471c0-.112-.09-.245-.26.001zm-6.671-6.46c-3.827 0-6.931 1.167-6.931 2.606v1.247c0 1.527 3.104 2.765 6.931 2.765 3.828 0 6.931-1.238 6.931-2.765V3.618c0-1.44-3.103-2.606-6.931-2.606z"/>
    </defs>
    <g fill="none" fill-rule="evenodd">
        <path d="M0 0h20v20H0z"/>
        <mask id="b" fill="#fff">
            <use xlink:href="#a"/>
        </mask>
        <use fill="#000" xlink:href="#a"/>
        <g fill="#2ED573" mask="url(#b)">
            <path d="M-40-10H60v40H-40z"/>
        </g>
    </g>
</svg>
