<svg xmlns="http://www.w3.org/2000/svg" width="40" height="40" viewBox="0 0 40 40">
    <g fill="none" fill-rule="evenodd">
        <g>
            <g>
                <g>
                    <g>
                        <g>
                            <path d="M0 0L48 0 48 48 0 48z" transform="translate(-316 -292) translate(277 262) translate(35 26)"/>
                            <path stroke="#FF9008" stroke-linecap="round" stroke-linejoin="round" stroke-width="3" d="M36.728 11.272c7.03 7.03 7.03 18.426 0 25.456-7.03 7.03-18.426 7.03-25.456 0-7.03-7.03-7.03-18.427 0-25.456 7.03-7.03 18.427-7.03 25.456 0M16 18L32 18" transform="translate(-316 -292) translate(277 262) translate(35 26)"/>
                            <path stroke="#FF9008" stroke-linecap="round" stroke-linejoin="round" stroke-width="3" d="M20 26L16 30 20 34M32 30L16 30M28 14L32 18 28 22" transform="translate(-316 -292) translate(277 262) translate(35 26)"/>
                        </g>
                    </g>
                </g>
            </g>
        </g>
    </g>
</svg>
