<svg xmlns="http://www.w3.org/2000/svg" width="18" height="18" viewBox="0 0 18 18">
    <g fill="none" fill-rule="evenodd">
        <g fill="#FFF" fill-rule="nonzero">
            <g>
                <g>
                    <g>
                        <path d="M9.648 4.07L8.045 5.67c-.14.138-.249.301-.293.413l-1.56 3.024c-.137.328-.18.686-.08 1.016H3.554c-.28 0-.506.226-.506.505 0 .278.226.504.506.504h3.6c.14.043.285.072.435.072.201 0 .399-.04.662-.154l2.893-1.498c.182-.076.344-.185.483-.324l1.594-1.592v5.01c0 .834-.68 1.513-1.516 1.513H5.818L2.9 17.073c-.146.146-.364.187-.55.11-.19-.078-.312-.263-.312-.467V14.16h-.505c-.836 0-1.516-.679-1.516-1.513V5.583c0-.834.68-1.513 1.516-1.513h8.115zM8.451 6.932l1.901 1.898-2.566 1.325c-.416.174-.834-.243-.66-.66L8.45 6.933zm4.586-4.853l2.144 2.14-3.991 4.02-2.144-2.14 3.991-4.02zM14.972.148c.197-.197.517-.197.714 0l1.43 1.427c.197.197.197.516 0 .713l-1.22 1.218-2.144-2.14z" transform="translate(-16 -382) translate(13 99.853) translate(3 282.584)"/>
                    </g>
                </g>
            </g>
        </g>
    </g>
</svg>
