<?xml version="1.0" encoding="UTF-8"?>
<svg width="47px" height="67px" viewBox="0 0 47 67" version="1.1" xmlns="http://www.w3.org/2000/svg" xmlns:xlink="http://www.w3.org/1999/xlink">
    <!-- Generator: Sketch 50.2 (55047) - http://www.bohemiancoding.com/sketch -->
    <title>Group 2</title>
    <desc>Created with Sketch.</desc>
    <defs></defs>
    <g id="Symbols" stroke="none" stroke-width="1" fill="none" fill-rule="evenodd">
        <g id="Top-Menu----Not-Login" fill="#31CB9E" fill-rule="nonzero">
            <g id="kyber-logo">
                <g id="Group-2">
                    <path d="M20,33.5085572 L45.0291971,47.8260572 C45.9084784,48.3249775 47,47.689988 47,46.6921475 L47,20.3098482 C47,19.2968889 45.9084784,18.6770182 45.0291971,19.1759385 L20,33.5085572 Z" id="Shape"></path>
                    <path d="M44.4732586,12.8350914 L27.3769029,0.269049366 C26.5828099,-0.315766435 25.4461669,0.104101319 25.243751,1.03380849 L19,29 L44.3175541,14.9944113 C45.1583585,14.5295577 45.2362107,13.404912 44.4732586,12.8350914" id="Shape"></path>
                    <path d="M27.36083,66.7375403 L44.4717278,54.1686161 C45.2346341,53.5986649 45.1567865,52.4737612 44.3316022,52.008801 L19,38 L25.2433758,65.9726058 C25.43021,66.9025262 26.5823542,67.3074915 27.36083,66.7375403" id="Shape"></path>
                    <path d="M13.4971379,33.0075661 L19.9685736,2.59192327 C20.2232366,1.39648259 18.8750208,0.533949433 17.9162896,1.2754253 L1.34821577,14.0469688 C0.494345784,14.6976518 0,15.7266387 0,16.8010221 L0,49.1989779 C0,50.2733613 0.494345784,51.3023482 1.34821577,51.9530312 L17.9162896,64.7245747 C18.8750208,65.4660506 20.2232366,64.6035174 19.9685736,63.4080767 L13.4971379,33.0075661 Z" id="Shape"></path>
                </g>
            </g>
        </g>
    </g>
</svg>