<svg xmlns="http://www.w3.org/2000/svg" width="66" height="66" viewBox="0 0 66 66">
    <g fill="none" fill-rule="nonzero">
        <path fill="#1B75BC" d="M33 66c18.225 0 33-14.775 33-33S51.225 0 33 0 0 14.775 0 33s14.775 33 33 33z"/>
        <path fill="#FFF" d="M49.5 42.946l-10.387-10.01L49.5 22.94l-6.122-5.875-10.386 9.995-10.387-9.995-6.105 5.875 10.387 9.995L16.5 42.946l6.105 5.875 10.387-9.995 10.386 9.995z"/>
        <path fill="#FFF" d="M42.743 16.439l-4.616-4.443-5.135-4.925-5.118 4.925-4.616 4.443 5.135 4.94 4.6-4.442 4.616 4.443zM23.258 49.562l4.616 4.442 5.118 4.925 5.135-4.925 4.616-4.442-5.134-4.942-4.617 4.443-4.6-4.443z"/>
    </g>
</svg>
